<?xml version="1.0" encoding="UTF-8"?>
<svg xmlns="http://www.w3.org/2000/svg" xmlns:xlink="http://www.w3.org/1999/xlink" width="32pt" height="32pt" viewBox="0 0 32 32" version="1.1">
<g id="surface1">
<path style=" stroke:none;fill-rule:nonzero;fill:#1793D1;fill-opacity:1;" d="M 16 2.285156 C 14.78125 5.28125 14.039062 7.242188 12.679688 10.144531 C 13.515625 11.027344 14.539062 12.050781 16.199219 13.210938 C 14.414062 12.476562 13.195312 11.746094 12.289062 10.980469 C 10.546875 14.609375 7.816406 19.773438 2.285156 29.714844 C 6.632812 27.203125 10.003906 25.660156 13.144531 25.070312 C 13.007812 24.488281 12.933594 23.859375 12.9375 23.203125 L 12.945312 23.070312 C 13.015625 20.285156 14.460938 18.140625 16.179688 18.285156 C 17.894531 18.429688 19.230469 20.8125 19.160156 23.597656 C 19.148438 24.121094 19.089844 24.625 18.984375 25.089844 C 22.09375 25.699219 25.429688 27.242188 29.714844 29.714844 C 28.867188 28.15625 28.109375 26.757812 27.390625 25.421875 C 26.253906 24.539062 25.070312 23.398438 22.65625 22.15625 C 24.316406 22.585938 25.507812 23.085938 26.4375 23.640625 C 19.109375 9.996094 18.515625 8.183594 16 2.285156 Z M 16 2.285156 "/>
</g>
</svg>
