<?xml version="1.0" encoding="UTF-8"?>
<svg xmlns="http://www.w3.org/2000/svg" xmlns:xlink="http://www.w3.org/1999/xlink" width="32pt" height="32pt" viewBox="0 0 32 32" version="1.1">
<g id="surface1">
<path style=" stroke:none;fill-rule:nonzero;fill:#A80030;fill-opacity:1;" d="M 5.003906 11.191406 C 5.144531 10.757812 5.171875 10.492188 5.226562 10.242188 C 4.832031 10.742188 5.046875 10.851562 5.003906 11.191406 M 5.726562 8.15625 C 5.800781 8.8125 5.234375 9.070312 5.851562 8.636719 C 6.1875 7.890625 5.726562 8.429688 5.726562 8.15625 M 16.515625 2.421875 C 16.824219 2.308594 17.273438 2.359375 17.601562 2.285156 C 17.171875 2.320312 16.75 2.34375 16.335938 2.398438 L 16.515625 2.421875 M 26.390625 14.65625 L 26.324219 14.824219 C 26.203125 15.695312 25.9375 16.554688 25.53125 17.351562 C 25.980469 16.511719 26.269531 15.589844 26.390625 14.65625 M 13.898438 17.375 C 13.738281 17.199219 13.644531 16.988281 13.539062 16.78125 C 13.640625 17.148438 13.84375 17.460938 14.039062 17.785156 L 13.898438 17.375 M 13.191406 17.398438 L 13.125 17.71875 C 13.425781 18.125 13.664062 18.5625 14.042969 18.882812 C 13.769531 18.34375 13.566406 18.125 13.191406 17.398438 M 24.476562 14.136719 C 24.5 14.871094 24.257812 15.226562 24.042969 15.859375 L 23.648438 16.054688 C 23.328125 16.679688 23.679688 16.453125 23.453125 16.949219 C 22.949219 17.394531 21.929688 18.34375 21.601562 18.429688 C 21.363281 18.429688 21.761719 18.148438 21.8125 18.039062 C 21.140625 18.503906 21.273438 18.734375 20.25 19.015625 L 20.21875 18.945312 C 17.6875 20.140625 14.164062 17.777344 14.210938 14.554688 C 14.183594 14.757812 14.132812 14.707031 14.078125 14.789062 C 13.945312 13.132812 14.84375 11.46875 16.359375 10.789062 C 17.835938 10.054688 19.570312 10.355469 20.628906 11.34375 C 20.046875 10.578125 18.890625 9.773438 17.515625 9.847656 C 16.171875 9.867188 14.914062 10.722656 14.492188 11.648438 C 13.804688 12.085938 13.726562 13.320312 13.421875 13.546875 C 13.019531 16.515625 14.183594 17.800781 16.152344 19.308594 C 16.460938 19.515625 16.242188 19.546875 16.28125 19.710938 C 15.625 19.402344 15.03125 18.9375 14.539062 18.375 C 14.796875 18.757812 15.078125 19.128906 15.445312 19.421875 C 14.828125 19.210938 14.003906 17.925781 13.765625 17.875 C 14.828125 19.777344 18.078125 21.210938 19.777344 20.5 C 18.992188 20.53125 17.992188 20.515625 17.105469 20.1875 C 16.734375 20 16.226562 19.601562 16.320312 19.527344 C 18.640625 20.394531 21.039062 20.1875 23.046875 18.574219 C 23.5625 18.175781 24.117188 17.5 24.28125 17.488281 C 24.039062 17.855469 24.320312 17.664062 24.132812 17.988281 C 24.644531 17.164062 23.914062 17.652344 24.664062 16.570312 L 24.9375 16.949219 C 24.835938 16.265625 25.785156 15.4375 25.6875 14.359375 C 25.90625 14.03125 25.929688 14.714844 25.699219 15.476562 C 26.023438 14.632812 25.785156 14.5 25.867188 13.804688 C 25.953125 14.039062 26.070312 14.285156 26.132812 14.53125 C 25.921875 13.71875 26.347656 13.164062 26.453125 12.6875 C 26.351562 12.640625 26.128906 13.046875 26.078125 12.085938 C 26.085938 11.671875 26.195312 11.867188 26.238281 11.765625 C 26.15625 11.71875 25.941406 11.398438 25.8125 10.785156 C 25.90625 10.640625 26.0625 11.15625 26.191406 11.179688 C 26.109375 10.695312 25.96875 10.320312 25.960938 9.945312 C 25.585938 9.15625 25.828125 10.050781 25.523438 9.609375 C 25.121094 8.359375 25.851562 9.320312 25.90625 8.75 C 26.511719 9.632812 26.859375 10.996094 27.015625 11.5625 C 26.898438 10.871094 26.699219 10.203125 26.460938 9.554688 C 26.644531 9.632812 26.164062 8.140625 26.703125 9.128906 C 26.125 7.015625 24.242188 5.042969 22.511719 4.117188 C 22.722656 4.3125 22.992188 4.554688 22.894531 4.59375 C 22.03125 4.078125 22.1875 4.039062 22.0625 3.820312 C 21.359375 3.539062 21.3125 3.84375 20.847656 3.824219 C 19.523438 3.125 19.273438 3.195312 18.054688 2.757812 L 18.109375 3.015625 C 17.234375 2.726562 17.085938 3.125 16.140625 3.015625 C 16.085938 2.972656 16.445312 2.851562 16.742188 2.8125 C 15.894531 2.921875 15.933594 2.644531 15.105469 2.84375 C 15.308594 2.699219 15.523438 2.601562 15.742188 2.480469 C 15.054688 2.523438 14.09375 2.882812 14.390625 2.554688 C 13.261719 3.058594 11.261719 3.765625 10.140625 4.820312 L 10.101562 4.582031 C 9.585938 5.199219 7.859375 6.429688 7.71875 7.226562 L 7.582031 7.257812 C 7.3125 7.710938 7.140625 8.226562 6.929688 8.695312 C 6.578125 9.289062 6.414062 8.921875 6.464844 9.015625 C 5.777344 10.414062 5.433594 11.585938 5.140625 12.550781 C 5.351562 12.867188 5.144531 14.445312 5.222656 15.710938 C 4.875 21.960938 9.609375 28.023438 14.78125 29.425781 C 15.539062 29.695312 16.664062 29.6875 17.625 29.714844 C 16.492188 29.390625 16.34375 29.542969 15.242188 29.15625 C 14.449219 28.785156 14.273438 28.359375 13.710938 27.867188 L 13.9375 28.261719 C 12.828125 27.871094 13.292969 27.78125 12.394531 27.492188 L 12.632812 27.183594 C 12.273438 27.15625 11.6875 26.578125 11.523438 26.261719 L 11.132812 26.277344 C 10.664062 25.695312 10.410156 25.277344 10.429688 24.953125 L 10.304688 25.179688 C 10.15625 24.933594 8.570312 23 9.394531 23.453125 C 9.242188 23.3125 9.039062 23.226562 8.820312 22.824219 L 8.984375 22.632812 C 8.589844 22.125 8.257812 21.46875 8.28125 21.25 C 8.492188 21.539062 8.640625 21.589844 8.785156 21.640625 C 7.785156 19.15625 7.726562 21.5 6.96875 19.109375 L 7.132812 19.097656 C 7.007812 18.914062 6.933594 18.710938 6.835938 18.515625 L 6.90625 17.820312 C 6.183594 16.984375 6.703125 14.273438 6.804688 12.789062 C 6.878906 12.1875 7.40625 11.542969 7.8125 10.53125 L 7.5625 10.492188 C 8.03125 9.671875 10.242188 7.207031 11.265625 7.335938 C 11.761719 6.710938 11.164062 7.332031 11.070312 7.171875 C 12.15625 6.046875 12.5 6.378906 13.234375 6.175781 C 14.027344 5.707031 12.554688 6.359375 12.929688 6 C 14.300781 5.648438 13.898438 5.203125 15.6875 5.023438 C 15.875 5.132812 15.25 5.1875 15.09375 5.328125 C 16.234375 4.773438 18.703125 4.898438 20.304688 5.640625 C 22.167969 6.507812 24.257812 9.078125 24.34375 11.5 L 24.4375 11.523438 C 24.390625 12.484375 24.585938 13.597656 24.246094 14.617188 L 24.476562 14.136719 M 16.914062 2.773438 L 16.742188 2.8125 L 16.898438 2.796875 L 16.914062 2.773438 M 16.429688 2.640625 C 16.671875 2.683594 16.953125 2.71875 16.914062 2.773438 C 17.179688 2.71875 17.238281 2.664062 16.429688 2.640625 M 21.492188 13.828125 C 21.546875 13.007812 21.328125 13.265625 21.257812 13.578125 C 21.34375 13.625 21.40625 14.15625 21.492188 13.828125 M 20.589844 16.171875 C 20.859375 15.796875 21.058594 15.386719 21.128906 14.964844 C 21.066406 15.265625 20.90625 15.523438 20.75 15.800781 C 19.898438 16.335938 20.671875 15.484375 20.75 15.160156 C 19.835938 16.308594 20.625 15.851562 20.589844 16.171875 M 18.148438 16.777344 C 17.695312 16.785156 18.234375 17.011719 18.828125 17.101562 C 18.992188 16.976562 19.140625 16.84375 19.273438 16.71875 C 18.90625 16.8125 18.53125 16.8125 18.148438 16.777344 "/>
</g>
</svg>
