<?xml version="1.0" encoding="UTF-8"?>
<svg xmlns="http://www.w3.org/2000/svg" xmlns:xlink="http://www.w3.org/1999/xlink" width="64pt" height="64pt" viewBox="0 0 64 64" version="1.1">
<g id="surface1">
<path style=" stroke:none;fill-rule:nonzero;fill:rgb(100%,100%,100%);fill-opacity:1;" d="M 32.417969 13.773438 C 32.410156 13.675781 32.402344 13.574219 32.402344 13.476562 C 32.402344 12.027344 33.351562 10.851562 34.515625 10.851562 C 35.710938 10.851562 36.644531 12.003906 36.644531 13.476562 C 36.644531 13.808594 36.59375 14.132812 36.5 14.425781 C 36.847656 13.871094 37.050781 13.171875 37.050781 12.441406 C 37.050781 10.679688 35.925781 9.25 34.542969 9.25 C 33.160156 9.25 32.035156 10.679688 32.035156 12.441406 C 32.035156 12.875 32.101562 13.296875 32.238281 13.703125 C 32.296875 13.726562 32.355469 13.75 32.417969 13.773438 Z M 32.417969 13.773438 "/>
<path style=" stroke:none;fill-rule:nonzero;fill:rgb(100%,100%,100%);fill-opacity:1;" d="M 26.175781 10.992188 C 26.25 10.980469 26.320312 10.972656 26.390625 10.972656 C 27.316406 10.972656 28.148438 11.882812 28.367188 13.136719 C 28.386719 13.273438 28.402344 13.410156 28.40625 13.546875 C 28.46875 13.515625 28.527344 13.488281 28.589844 13.460938 C 28.621094 13.242188 28.636719 13.039062 28.636719 12.835938 C 28.636719 11.210938 27.777344 9.839844 26.757812 9.839844 C 25.894531 9.839844 25.164062 10.796875 24.953125 12.085938 C 25.191406 11.496094 25.625 11.082031 26.175781 10.992188 Z M 26.175781 10.992188 "/>
<path style=" stroke:none;fill-rule:nonzero;fill:rgb(100%,100%,100%);fill-opacity:1;" d="M 43.636719 43.730469 C 43.871094 42.742188 44.332031 40.21875 43.894531 37.167969 C 43.339844 33.308594 37.910156 21.292969 36.976562 19.949219 C 36.429688 20.027344 34.980469 20.863281 33.808594 21.542969 C 32.445312 22.328125 31.039062 23.144531 30.078125 23.417969 C 29.878906 23.476562 29.671875 23.503906 29.453125 23.503906 C 28.054688 23.503906 26.539062 22.320312 25.5625 21.386719 C 25.390625 23.199219 24.429688 25.492188 23.386719 26.671875 C 22.726562 27.429688 22.136719 29.15625 21.566406 30.824219 C 21.039062 32.371094 20.496094 33.96875 19.828125 35.023438 C 18.476562 37.128906 17.699219 41.21875 18.683594 43.542969 C 19.160156 44.671875 20.886719 46 22.410156 47.175781 C 24.273438 48.613281 25.882812 49.851562 26.058594 51.101562 C 26.265625 52.582031 25.480469 53.402344 24.695312 53.789062 L 26.6875 56.074219 C 26.996094 56.121094 27.738281 56.210938 28.902344 56.210938 C 30.261719 56.210938 31.773438 56.089844 33.390625 55.855469 C 37.363281 55.265625 40.125 51.996094 40.671875 51.300781 C 40.675781 50.378906 40.703125 46.285156 40.972656 45.003906 C 41.078125 44.511719 41.476562 43.6875 42.988281 43.6875 C 43.226562 43.6875 43.449219 43.707031 43.636719 43.730469 Z M 43.636719 43.730469 "/>
<path style=" stroke:none;fill-rule:nonzero;fill:rgb(90.196078%,58.823529%,16.078431%);fill-opacity:1;" d="M 26.3125 18.386719 C 26.390625 18.6875 27.078125 19.460938 28.148438 20.164062 C 28.300781 20.261719 28.445312 20.359375 28.578125 20.449219 C 29.171875 20.855469 29.4375 21.019531 29.863281 20.964844 C 30.492188 20.878906 32.8125 19.476562 33.800781 18.875 L 34.046875 18.726562 C 34.417969 18.5 34.710938 18.347656 34.949219 18.226562 C 35.417969 17.980469 35.460938 17.941406 35.480469 17.851562 C 35.425781 17.714844 34.988281 17.34375 34.148438 17.058594 C 33.882812 16.960938 33.503906 16.808594 33.066406 16.636719 C 32.117188 16.257812 30.816406 15.738281 30.292969 15.644531 C 30.269531 15.640625 30.246094 15.640625 30.222656 15.640625 C 29.777344 15.640625 28.871094 16.203125 27.96875 17.039062 C 27.527344 17.4375 26.660156 18.113281 26.3125 18.386719 Z M 26.3125 18.386719 "/>
<path style=" stroke:none;fill-rule:nonzero;fill:rgb(90.196078%,58.823529%,16.078431%);fill-opacity:1;" d="M 18.394531 49.441406 C 18.003906 48.789062 17.667969 48.222656 17.484375 47.941406 C 16.765625 46.828125 15.523438 45.578125 14.929688 45.578125 C 14.878906 45.578125 14.851562 45.59375 14.832031 45.601562 C 14.515625 45.78125 14.25 46.332031 13.992188 46.863281 C 13.636719 47.597656 13.234375 48.429688 12.488281 48.882812 C 11.9375 49.214844 11.09375 49.398438 10.277344 49.574219 C 9.699219 49.703125 8.34375 49.996094 8.277344 50.269531 C 8.191406 50.640625 8.273438 51.023438 8.375 51.511719 C 8.5 52.082031 8.652344 52.792969 8.519531 53.667969 C 8.429688 54.214844 8.261719 54.742188 8.101562 55.246094 C 7.878906 55.953125 7.625 56.75 7.84375 56.996094 C 8.113281 57.234375 9.742188 57.5 10.933594 57.691406 C 12.429688 57.933594 13.976562 58.183594 14.925781 58.582031 L 15.175781 58.6875 C 16.875 59.398438 20.035156 60.726562 21.628906 60.726562 C 21.773438 60.726562 21.898438 60.714844 22 60.695312 C 22.273438 60.507812 23.441406 59.671875 23.660156 58.640625 C 23.957031 57.3125 22.742188 55.765625 21.988281 54.960938 C 21.15625 54.066406 19.558594 51.390625 18.394531 49.441406 Z M 18.394531 49.441406 "/>
<path style=" stroke:none;fill-rule:nonzero;fill:rgb(90.196078%,58.823529%,16.078431%);fill-opacity:1;" d="M 54.46875 52.621094 L 54.277344 52.519531 C 52.9375 51.8125 52.238281 49.894531 52.328125 48.453125 C 52.347656 48.183594 52.3125 47.980469 52.261719 47.820312 C 52.011719 48.226562 51.660156 48.738281 51.242188 49.15625 C 50.53125 49.871094 48.792969 50.636719 47.230469 50.636719 C 46.644531 50.636719 46.113281 50.535156 45.648438 50.332031 C 44.085938 49.648438 43.871094 47.695312 43.867188 46.714844 C 43.84375 46.722656 43.824219 46.730469 43.804688 46.738281 C 43.710938 47.078125 43.800781 48.214844 43.863281 48.980469 C 43.898438 49.390625 43.933594 49.816406 43.953125 50.203125 C 44.042969 51.917969 43.496094 54.824219 43.023438 56.960938 C 42.574219 59.050781 43.410156 60.519531 44.425781 60.835938 C 44.515625 60.863281 44.617188 60.878906 44.730469 60.878906 C 45.667969 60.878906 47.21875 59.910156 48.585938 58.46875 C 49.5625 57.445312 51.726562 56.335938 53.640625 55.359375 C 54.71875 54.808594 55.832031 54.242188 56.148438 53.953125 C 56.21875 53.886719 56.230469 53.847656 56.230469 53.847656 C 56.210938 53.535156 54.945312 52.871094 54.46875 52.621094 Z M 54.46875 52.621094 "/>
<path style=" stroke:none;fill-rule:nonzero;fill:rgb(0%,0%,0%);fill-opacity:1;" d="M 57.632812 51.386719 C 55.757812 50.617188 54.953125 49.597656 55.03125 48.074219 C 55.113281 46.300781 54.105469 45 53.625 44.484375 C 53.914062 43.378906 54.757812 39.558594 53.625 36.238281 C 52.40625 32.6875 48.691406 27.261719 44.851562 21.929688 C 43.28125 19.738281 43.207031 17.355469 43.121094 14.601562 C 43.039062 11.96875 42.949219 8.988281 41.480469 5.675781 C 39.886719 2.070312 36.6875 0 32.703125 0 C 30.332031 0 27.902344 0.742188 26.027344 2.03125 C 22.195312 4.679688 22.703125 10.445312 23.035156 14.261719 C 23.082031 14.785156 23.125 15.28125 23.152344 15.703125 C 23.375 19.441406 23.171875 21.410156 22.90625 22.007812 C 22.734375 22.402344 21.886719 23.515625 20.992188 24.695312 C 20.066406 25.914062 19.015625 27.296875 18.15625 28.582031 C 17.128906 30.132812 16.300781 32.503906 15.5 34.792969 C 14.914062 36.472656 14.359375 38.054688 13.820312 39 C 12.796875 40.820312 13.050781 42.519531 13.261719 43.304688 C 12.875 43.574219 12.316406 44.101562 11.847656 45.101562 C 11.273438 46.316406 10.117188 46.96875 7.710938 47.433594 C 6.605469 47.660156 5.84375 48.125 5.445312 48.816406 C 4.863281 49.820312 5.179688 51.082031 5.46875 51.949219 C 5.894531 53.214844 5.628906 54.019531 5.148438 55.476562 C 5.035156 55.8125 4.910156 56.195312 4.78125 56.617188 C 4.582031 57.277344 4.652344 57.882812 4.996094 58.410156 C 5.90625 59.796875 8.558594 60.289062 11.289062 60.609375 C 12.917969 60.804688 14.703125 61.457031 16.425781 62.085938 C 18.117188 62.703125 19.867188 63.34375 21.453125 63.535156 C 21.695312 63.566406 21.933594 63.582031 22.167969 63.582031 C 24.566406 63.582031 25.648438 61.992188 25.992188 61.335938 C 26.855469 61.160156 29.828125 60.597656 32.890625 60.523438 C 35.949219 60.433594 38.910156 61.039062 39.746094 61.226562 C 40.011719 61.730469 40.707031 62.882812 41.8125 63.476562 C 42.421875 63.808594 43.269531 64 44.136719 64 C 45.0625 64 46.824219 63.78125 48.222656 62.3125 C 49.613281 60.839844 53.089844 58.957031 55.628906 57.582031 C 56.195312 57.273438 56.726562 56.988281 57.191406 56.726562 C 58.617188 55.9375 59.394531 54.808594 59.324219 53.628906 C 59.265625 52.648438 58.621094 51.789062 57.632812 51.386719 Z M 34.542969 9.25 C 35.925781 9.25 37.050781 10.679688 37.050781 12.441406 C 37.050781 13.171875 36.847656 13.871094 36.5 14.425781 C 36.59375 14.132812 36.640625 13.808594 36.640625 13.476562 C 36.640625 12.003906 35.707031 10.851562 34.515625 10.851562 C 33.351562 10.851562 32.402344 12.027344 32.402344 13.476562 C 32.402344 13.574219 32.410156 13.675781 32.417969 13.773438 C 32.355469 13.75 32.296875 13.726562 32.238281 13.703125 C 32.101562 13.296875 32.035156 12.875 32.035156 12.441406 C 32.035156 10.679688 33.160156 9.25 34.542969 9.25 Z M 30.289062 15.644531 C 30.816406 15.738281 32.117188 16.257812 33.066406 16.636719 C 33.503906 16.8125 33.882812 16.960938 34.148438 17.058594 C 34.988281 17.347656 35.425781 17.714844 35.480469 17.851562 C 35.460938 17.941406 35.417969 17.980469 34.949219 18.226562 C 34.710938 18.347656 34.417969 18.5 34.046875 18.726562 L 33.800781 18.875 C 32.8125 19.476562 30.492188 20.882812 29.863281 20.964844 C 29.4375 21.019531 29.171875 20.855469 28.578125 20.453125 C 28.445312 20.359375 28.300781 20.261719 28.148438 20.164062 C 27.078125 19.460938 26.386719 18.6875 26.3125 18.386719 C 26.660156 18.117188 27.527344 17.441406 27.96875 17.039062 C 28.871094 16.203125 29.773438 15.640625 30.222656 15.640625 C 30.246094 15.640625 30.269531 15.640625 30.289062 15.644531 Z M 26.757812 9.839844 C 27.777344 9.839844 28.636719 11.210938 28.636719 12.835938 C 28.636719 13.039062 28.621094 13.242188 28.589844 13.460938 C 28.527344 13.488281 28.46875 13.515625 28.40625 13.546875 C 28.402344 13.410156 28.386719 13.273438 28.367188 13.136719 C 28.148438 11.882812 27.316406 10.972656 26.390625 10.972656 C 26.320312 10.972656 26.25 10.980469 26.175781 10.988281 C 25.625 11.082031 25.191406 11.496094 24.953125 12.082031 C 25.164062 10.792969 25.894531 9.839844 26.757812 9.839844 Z M 23.660156 58.640625 C 23.441406 59.671875 22.273438 60.507812 22 60.695312 C 21.898438 60.714844 21.773438 60.726562 21.628906 60.726562 C 20.035156 60.726562 16.875 59.398438 15.175781 58.6875 L 14.925781 58.582031 C 13.976562 58.183594 12.429688 57.933594 10.933594 57.691406 C 9.742188 57.5 8.113281 57.234375 7.84375 56.996094 C 7.625 56.75 7.878906 55.953125 8.101562 55.246094 C 8.261719 54.742188 8.429688 54.214844 8.519531 53.667969 C 8.652344 52.792969 8.5 52.082031 8.375 51.511719 C 8.273438 51.023438 8.191406 50.640625 8.277344 50.269531 C 8.34375 49.996094 9.699219 49.703125 10.277344 49.574219 C 11.09375 49.398438 11.9375 49.214844 12.488281 48.882812 C 13.234375 48.429688 13.636719 47.597656 13.992188 46.863281 C 14.25 46.332031 14.515625 45.78125 14.832031 45.601562 C 14.851562 45.59375 14.878906 45.578125 14.929688 45.578125 C 15.523438 45.578125 16.765625 46.828125 17.484375 47.941406 C 17.667969 48.222656 18.003906 48.789062 18.394531 49.441406 C 19.558594 51.390625 21.15625 54.066406 21.988281 54.960938 C 22.742188 55.765625 23.957031 57.3125 23.660156 58.640625 Z M 40.972656 45.003906 C 40.707031 46.285156 40.675781 50.378906 40.671875 51.300781 C 40.125 51.996094 37.363281 55.265625 33.390625 55.855469 C 31.773438 56.089844 30.265625 56.210938 28.902344 56.210938 C 27.738281 56.210938 26.996094 56.121094 26.6875 56.074219 L 24.695312 53.789062 C 25.480469 53.402344 26.265625 52.582031 26.058594 51.101562 C 25.882812 49.851562 24.273438 48.613281 22.410156 47.175781 C 20.886719 46 19.160156 44.671875 18.683594 43.542969 C 17.699219 41.21875 18.476562 37.128906 19.828125 35.023438 C 20.496094 33.96875 21.039062 32.371094 21.566406 30.824219 C 22.136719 29.15625 22.726562 27.429688 23.386719 26.671875 C 24.429688 25.492188 25.390625 23.199219 25.5625 21.386719 C 26.539062 22.320312 28.054688 23.503906 29.453125 23.503906 C 29.671875 23.503906 29.878906 23.476562 30.078125 23.417969 C 31.039062 23.144531 32.445312 22.328125 33.808594 21.542969 C 34.984375 20.863281 36.429688 20.027344 36.976562 19.949219 C 37.910156 21.292969 43.339844 33.308594 43.894531 37.167969 C 44.332031 40.21875 43.871094 42.742188 43.636719 43.730469 C 43.449219 43.707031 43.226562 43.6875 42.992188 43.6875 C 41.476562 43.6875 41.078125 44.511719 40.972656 45.003906 Z M 56.148438 53.953125 C 55.832031 54.242188 54.71875 54.8125 53.640625 55.359375 C 51.726562 56.335938 49.5625 57.445312 48.589844 58.46875 C 47.21875 59.910156 45.667969 60.878906 44.730469 60.878906 C 44.621094 60.878906 44.515625 60.863281 44.425781 60.835938 C 43.410156 60.519531 42.574219 59.050781 43.023438 56.960938 C 43.496094 54.824219 44.042969 51.917969 43.953125 50.203125 C 43.933594 49.816406 43.898438 49.390625 43.867188 48.980469 C 43.804688 48.214844 43.710938 47.078125 43.804688 46.738281 C 43.824219 46.730469 43.847656 46.722656 43.867188 46.71875 C 43.875 47.695312 44.085938 49.648438 45.648438 50.332031 C 46.113281 50.535156 46.644531 50.636719 47.230469 50.636719 C 48.796875 50.636719 50.53125 49.871094 51.242188 49.160156 C 51.660156 48.738281 52.015625 48.226562 52.261719 47.820312 C 52.316406 47.980469 52.347656 48.1875 52.332031 48.453125 C 52.238281 49.898438 52.941406 51.8125 54.277344 52.519531 L 54.46875 52.621094 C 54.945312 52.871094 56.210938 53.535156 56.230469 53.851562 C 56.230469 53.851562 56.21875 53.886719 56.148438 53.953125 Z M 56.148438 53.953125 "/>
</g>
</svg>
