<?xml version="1.0" encoding="UTF-8"?>
<svg xmlns="http://www.w3.org/2000/svg" xmlns:xlink="http://www.w3.org/1999/xlink" width="32pt" height="32pt" viewBox="0 0 32 32" version="1.1">
<g id="surface1">
<path style=" stroke:none;fill-rule:nonzero;fill:#BFFF80;fill-opacity:1;" d="M 0 2.253906 L 0 7.847656 L 2.4375 7.847656 C 4.140625 7.847656 4.4375 9 4.4375 10.59375 L 4.453125 20.472656 C 4.453125 25.59375 9.042969 29.746094 14.695312 29.746094 L 28.648438 29.746094 C 30.433594 29.746094 32 28.636719 32 26.933594 L 32 11.609375 C 32 6.488281 27.410156 2.34375 21.757812 2.34375 L 15.882812 2.34375 L 15.882812 2.320312 Z M 7.628906 5.675781 L 10.433594 5.675781 L 10.433594 19.761719 C 10.433594 21.644531 11.746094 23.105469 13.285156 23.105469 L 22.84375 23.144531 C 24.839844 23.144531 26.394531 21.800781 26.394531 20.203125 L 26.375 12.730469 C 26.390625 12.269531 26.203125 11.828125 25.863281 11.515625 C 25.546875 11.183594 25.105469 10.992188 24.640625 11.003906 C 24.140625 11.003906 23.769531 11.160156 23.414062 11.515625 C 23.078125 11.828125 22.890625 12.269531 22.898438 12.730469 L 22.898438 19.125 L 19.9375 19.125 L 19.9375 12.730469 C 19.9375 12.246094 19.769531 11.863281 19.414062 11.515625 C 19.101562 11.175781 18.65625 10.992188 18.195312 11.003906 C 17.707031 11.003906 17.332031 11.164062 16.976562 11.515625 C 16.621094 11.863281 16.457031 12.242188 16.457031 12.730469 L 16.457031 19.128906 L 13.492188 19.128906 L 13.492188 12.730469 C 13.492188 11.464844 13.972656 10.34375 14.878906 9.441406 C 15.753906 8.558594 16.949219 8.066406 18.195312 8.078125 C 19.445312 8.078125 20.527344 8.542969 21.410156 9.375 C 22.273438 8.535156 23.433594 8.074219 24.636719 8.078125 C 25.910156 8.078125 27.039062 8.542969 27.949219 9.441406 C 28.847656 10.300781 29.347656 11.488281 29.34375 12.730469 L 29.351562 20.71875 C 29.210938 22.058594 28.632812 23.246094 27.644531 24.234375 C 26.527344 25.371094 25.003906 26.007812 23.410156 25.984375 L 12.765625 25.984375 L 12.765625 25.9375 C 11.460938 25.796875 10.300781 25.246094 9.335938 24.3125 C 8.210938 23.214844 7.628906 21.855469 7.628906 20.304688 Z M 7.628906 5.675781 "/>
</g>
</svg>
