<?xml version="1.0" encoding="UTF-8"?>
<svg xmlns="http://www.w3.org/2000/svg" xmlns:xlink="http://www.w3.org/1999/xlink" width="32pt" height="32pt" viewBox="0 0 32 32" version="1.1">
<g id="surface1">
<path style=" stroke:none;fill-rule:nonzero;fill:#DD4814;fill-opacity:1;" d="M 24.695312 16.9375 C 24.238281 20.136719 21.484375 22.605469 18.15625 22.605469 C 17.289062 22.605469 16.460938 22.4375 15.699219 22.128906 L 13.410156 26.09375 C 14.875 26.785156 16.488281 27.148438 18.15625 27.148438 C 19.03125 27.148438 19.886719 27.046875 20.714844 26.855469 C 20.777344 25.601562 21.453125 24.40625 22.625 23.734375 C 23.789062 23.058594 25.160156 23.070312 26.277344 23.640625 C 28.015625 21.789062 29.058594 19.449219 29.265625 16.9375 Z M 11.554688 16 C 11.554688 13.898438 12.546875 12.023438 14.082031 10.8125 L 11.792969 6.847656 C 11.257812 7.222656 10.75 7.648438 10.273438 8.121094 C 8.953125 9.445312 8 11.042969 7.480469 12.789062 C 8.53125 13.46875 9.230469 14.65625 9.230469 16 C 9.230469 17.351562 8.53125 18.53125 7.480469 19.214844 C 8 20.960938 8.953125 22.558594 10.273438 23.882812 C 10.75 24.355469 11.257812 24.78125 11.792969 25.15625 L 14.078125 21.191406 C 12.546875 19.984375 11.554688 18.105469 11.554688 16 Z M 18.15625 9.398438 C 21.480469 9.398438 24.234375 11.867188 24.695312 15.0625 L 29.265625 15.0625 C 29.058594 12.554688 28.015625 10.210938 26.273438 8.359375 C 25.15625 8.929688 23.785156 8.941406 22.621094 8.265625 C 21.453125 7.59375 20.777344 6.398438 20.710938 5.148438 C 19.882812 4.953125 19.03125 4.855469 18.15625 4.855469 C 16.492188 4.855469 14.878906 5.21875 13.414062 5.910156 L 15.703125 9.875 C 16.460938 9.570312 17.289062 9.398438 18.15625 9.398438 Z M 27.203125 4.953125 C 27.203125 6.429688 26.007812 7.625 24.53125 7.625 C 23.0625 7.625 21.867188 6.429688 21.867188 4.953125 C 21.867188 3.480469 23.0625 2.285156 24.53125 2.285156 C 26.007812 2.285156 27.203125 3.480469 27.203125 4.953125 Z M 27.203125 27.046875 C 27.203125 28.519531 26.007812 29.714844 24.535156 29.714844 C 23.0625 29.714844 21.867188 28.519531 21.867188 27.046875 C 21.867188 25.570312 23.0625 24.375 24.535156 24.375 C 26.007812 24.375 27.203125 25.570312 27.203125 27.046875 Z M 8.070312 16 C 8.070312 17.476562 6.875 18.671875 5.402344 18.671875 C 3.929688 18.671875 2.734375 17.476562 2.734375 16 C 2.734375 14.53125 3.929688 13.335938 5.402344 13.335938 C 6.875 13.335938 8.070312 14.53125 8.070312 16 Z M 8.070312 16 "/>
</g>
</svg>
