<?xml version="1.0" encoding="UTF-8"?>
<svg xmlns="http://www.w3.org/2000/svg" xmlns:xlink="http://www.w3.org/1999/xlink" width="32pt" height="32pt" viewBox="0 0 32 32" version="1.1">
<g id="surface1">
<path style=" stroke:none;fill-rule:nonzero;fill:rgb(100%,88.235294%,49.019608%);fill-opacity:1;" d="M 15.5625 0.679688 L 1.753906 7.347656 C 1.582031 7.429688 1.472656 7.605469 1.472656 7.796875 L 1.472656 24.203125 C 1.472656 24.394531 1.582031 24.570312 1.753906 24.652344 L 15.5625 31.320312 C 15.839844 31.453125 16.160156 31.453125 16.4375 31.320312 L 30.246094 24.652344 C 30.417969 24.570312 30.527344 24.394531 30.527344 24.203125 L 30.527344 7.796875 C 30.527344 7.605469 30.417969 7.429688 30.246094 7.347656 L 16.4375 0.679688 C 16.160156 0.546875 15.839844 0.546875 15.5625 0.679688 Z M 15.5625 0.679688 "/>
<path style=" stroke:none;fill-rule:nonzero;fill:rgb(100%,76.470588%,31.372549%);fill-opacity:1;" d="M 1.554688 7.523438 C 1.5 7.601562 1.472656 7.699219 1.472656 7.796875 L 1.472656 24.203125 C 1.472656 24.394531 1.582031 24.570312 1.753906 24.652344 L 15.5625 31.320312 C 15.703125 31.386719 15.851562 31.421875 16 31.421875 L 16 14.496094 Z M 1.554688 7.523438 "/>
<path style=" stroke:none;fill-rule:nonzero;fill:rgb(100%,81.960784%,39.215686%);fill-opacity:1;" d="M 30.445312 7.523438 C 30.5 7.601562 30.527344 7.699219 30.527344 7.796875 L 30.527344 24.203125 C 30.527344 24.394531 30.417969 24.570312 30.246094 24.652344 L 16.4375 31.320312 C 16.296875 31.386719 16.148438 31.421875 16 31.421875 L 16 14.496094 Z M 30.445312 7.523438 "/>
<path style=" stroke:none;fill-rule:nonzero;fill:rgb(100%,50.196078%,52.941176%);fill-opacity:1;" d="M 25.550781 9.878906 L 11.054688 2.875 L 7.230469 4.726562 L 21.761719 11.742188 Z M 25.550781 9.878906 "/>
<path style=" stroke:none;fill-rule:nonzero;fill:rgb(90.196078%,39.215686%,43.137255%);fill-opacity:1;" d="M 21.761719 11.742188 L 21.761719 17.175781 C 21.761719 17.359375 21.953125 17.480469 22.121094 17.402344 L 25.265625 15.882812 C 25.441406 15.796875 25.550781 15.621094 25.550781 15.429688 L 25.550781 9.878906 Z M 21.761719 11.742188 "/>
<path style=" stroke:none;fill-rule:nonzero;fill:rgb(0%,0%,0%);fill-opacity:1;" d="M 30.734375 7.0625 L 16.203125 0.046875 C 16.074219 -0.015625 15.925781 -0.015625 15.796875 0.046875 L 1.265625 7.0625 C 1.105469 7.140625 1.003906 7.304688 1.003906 7.484375 L 1.003906 24.515625 C 1.003906 24.695312 1.105469 24.859375 1.265625 24.9375 L 15.796875 31.953125 C 15.859375 31.984375 15.929688 32 16 32 C 16.070312 32 16.140625 31.984375 16.203125 31.953125 L 30.734375 24.9375 C 30.894531 24.859375 30.996094 24.695312 30.996094 24.515625 L 30.996094 7.484375 C 30.996094 7.304688 30.894531 7.140625 30.734375 7.0625 Z M 16 0.988281 L 29.449219 7.484375 L 25.550781 9.363281 C 25.527344 9.347656 25.5 9.328125 25.472656 9.316406 L 12.113281 2.867188 Z M 11.054688 3.394531 L 24.484375 9.878906 L 21.734375 11.207031 L 8.308594 4.726562 Z M 22.230469 12.007812 L 24.800781 10.769531 L 24.800781 15.679688 L 22.230469 16.917969 Z M 16.46875 30.785156 L 16.46875 14.792969 L 19.710938 13.226562 C 19.945312 13.113281 20.042969 12.832031 19.929688 12.601562 C 19.816406 12.367188 19.535156 12.269531 19.304688 12.382812 L 16 13.976562 L 14.699219 13.347656 C 14.46875 13.234375 14.1875 13.335938 14.074219 13.566406 C 13.960938 13.800781 14.058594 14.082031 14.292969 14.191406 L 15.53125 14.792969 L 15.53125 30.785156 L 1.941406 24.222656 L 1.941406 8.230469 L 12.289062 13.226562 C 12.355469 13.257812 12.425781 13.273438 12.492188 13.273438 C 12.667969 13.273438 12.835938 13.175781 12.914062 13.007812 C 13.027344 12.773438 12.929688 12.496094 12.695312 12.382812 L 2.550781 7.484375 L 7.207031 5.234375 L 21.285156 12.03125 C 21.289062 12.035156 21.289062 12.039062 21.292969 12.039062 L 21.292969 17.664062 C 21.292969 17.828125 21.375 17.976562 21.511719 18.0625 C 21.589844 18.109375 21.675781 18.132812 21.761719 18.132812 C 21.832031 18.132812 21.902344 18.117188 21.964844 18.085938 L 25.472656 16.394531 C 25.632812 16.316406 25.738281 16.152344 25.738281 15.972656 L 25.738281 10.316406 L 30.058594 8.230469 L 30.058594 24.222656 Z M 16.46875 30.785156 "/>
<path style=" stroke:none;fill-rule:nonzero;fill:rgb(0%,0%,0%);fill-opacity:1;" d="M 5.808594 22.40625 L 3.675781 21.375 C 3.441406 21.261719 3.164062 21.359375 3.050781 21.59375 C 2.9375 21.828125 3.035156 22.105469 3.269531 22.21875 L 5.398438 23.25 C 5.464844 23.28125 5.535156 23.296875 5.605469 23.296875 C 5.777344 23.296875 5.945312 23.199219 6.027344 23.03125 C 6.140625 22.796875 6.039062 22.515625 5.808594 22.40625 Z M 5.808594 22.40625 "/>
<path style=" stroke:none;fill-rule:nonzero;fill:rgb(0%,0%,0%);fill-opacity:1;" d="M 7.769531 21.128906 L 3.679688 19.152344 C 3.445312 19.039062 3.164062 19.136719 3.050781 19.371094 C 2.941406 19.605469 3.039062 19.882812 3.269531 19.996094 L 7.363281 21.972656 C 7.429688 22.003906 7.496094 22.019531 7.566406 22.019531 C 7.742188 22.019531 7.90625 21.921875 7.988281 21.753906 C 8.101562 21.519531 8.003906 21.238281 7.769531 21.128906 Z M 7.769531 21.128906 "/>
</g>
</svg>
